{
	"asset":{
		"generator":"Khronos glTF Blender I/O v4.1.63",
		"version":"2.0"
	},
	"extensionsUsed":[
		"KHR_texture_transform",
		"KHR_materials_emissive_strength",
		"KHR_materials_specular"
	],
	"extensionsRequired":[
		"KHR_texture_transform"
	],
	"scene":0,
	"scenes":[
		{
			"name":"Scene",
			"nodes":[
				0,
				1,
				2,
				3,
				4,
				5,
				6,
				7,
				8,
				9,
				10
			]
		}
	],
	"nodes":[
		{
			"mesh":0,
			"name":"Cube"
		},
		{
			"mesh":1,
			"name":"Cylinder"
		},
		{
			"mesh":2,
			"name":"Cylinder.001"
		},
		{
			"mesh":3,
			"name":"Cylinder.002"
		},
		{
			"mesh":4,
			"name":"Cylinder.003"
		},
		{
			"mesh":5,
			"name":"Torus"
		},
		{
			"mesh":6,
			"name":"Torus.001"
		},
		{
			"mesh":7,
			"name":"Torus.002"
		},
		{
			"mesh":8,
			"name":"Torus.003"
		},
		{
			"mesh":9,
			"name":"Cylinder.004"
		},
		{
			"name":"SwordReference",
			"scale":[
				1.7830384969711304,
				1.7830384969711304,
				1.7830384969711304
			],
			"translation":[
				0,
				-0.9709087610244751,
				-3.4149727821350098
			]
		}
	],
	"materials":[
		{
			"doubleSided":true,
			"emissiveFactor":[
				1,
				1,
				1
			],
			"emissiveTexture":{
				"extensions":{
					"KHR_texture_transform":{
						"offset":[
							0,
							-4
						],
						"scale":[
							1,
							5
						]
					}
				},
				"index":0
			},
			"extensions":{
				"KHR_materials_emissive_strength":{
					"emissiveStrength":100
				}
			},
			"name":"blade",
			"pbrMetallicRoughness":{
				"baseColorFactor":[
					0.800000011920929,
					0.800000011920929,
					0.800000011920929,
					1
				],
				"metallicRoughnessTexture":{
					"index":1
				}
			}
		},
		{
			"doubleSided":true,
			"emissiveTexture":{
				"extensions":{
					"KHR_texture_transform":{
						"offset":[
							0,
							-4
						],
						"scale":[
							1,
							5
						]
					}
				},
				"index":2
			},
			"name":"blade_no_runes",
			"pbrMetallicRoughness":{
				"baseColorFactor":[
					0.800000011920929,
					0.800000011920929,
					0.800000011920929,
					1
				],
				"metallicRoughnessTexture":{
					"index":3
				}
			}
		},
		{
			"doubleSided":true,
			"extensions":{
				"KHR_materials_specular":{
					"specularFactor":0
				}
			},
			"name":"handle",
			"pbrMetallicRoughness":{
				"baseColorTexture":{
					"index":4
				},
				"metallicFactor":0,
				"roughnessFactor":0.5
			}
		},
		{
			"doubleSided":true,
			"emissiveTexture":{
				"extensions":{
					"KHR_texture_transform":{
						"offset":[
							0,
							-4
						],
						"scale":[
							1,
							5
						]
					}
				},
				"index":5
			},
			"name":"guard",
			"pbrMetallicRoughness":{
				"baseColorFactor":[
					0.30000001192092896,
					0.20639999210834503,
					0.11999999731779099,
					1
				],
				"metallicRoughnessTexture":{
					"index":6
				}
			}
		},
		{
			"doubleSided":true,
			"emissiveTexture":{
				"index":7
			},
			"name":"pommel_tip",
			"pbrMetallicRoughness":{
				"baseColorFactor":[
					0.30000001192092896,
					0.20639999210834503,
					0.11999999731779099,
					1
				],
				"metallicRoughnessTexture":{
					"index":8
				}
			}
		},
		{
			"doubleSided":true,
			"emissiveFactor":[
				1,
				1,
				1
			],
			"emissiveTexture":{
				"index":9
			},
			"extensions":{
				"KHR_materials_emissive_strength":{
					"emissiveStrength":100
				}
			},
			"name":"pommel_rune",
			"pbrMetallicRoughness":{
				"baseColorFactor":[
					0.30000001192092896,
					0.20639999210834503,
					0.11999999731779099,
					1
				],
				"metallicRoughnessTexture":{
					"index":10
				}
			}
		}
	],
	"meshes":[
		{
			"name":"Cube.001",
			"primitives":[
				{
					"attributes":{
						"POSITION":0,
						"NORMAL":1,
						"TEXCOORD_0":2
					},
					"indices":3,
					"material":0
				},
				{
					"attributes":{
						"POSITION":4,
						"NORMAL":5,
						"TEXCOORD_0":6
					},
					"indices":7,
					"material":1
				}
			]
		},
		{
			"name":"Mesh",
			"primitives":[
				{
					"attributes":{
						"POSITION":8,
						"NORMAL":9,
						"TEXCOORD_0":10
					},
					"indices":11,
					"material":2
				}
			]
		},
		{
			"name":"Mesh",
			"primitives":[
				{
					"attributes":{
						"POSITION":12,
						"NORMAL":13,
						"TEXCOORD_0":14
					},
					"indices":15,
					"material":3
				}
			]
		},
		{
			"name":"Mesh",
			"primitives":[
				{
					"attributes":{
						"POSITION":16,
						"NORMAL":17,
						"TEXCOORD_0":18
					},
					"indices":19,
					"material":3
				}
			]
		},
		{
			"name":"Mesh",
			"primitives":[
				{
					"attributes":{
						"POSITION":20,
						"NORMAL":21,
						"TEXCOORD_0":22
					},
					"indices":23,
					"material":4
				}
			]
		},
		{
			"name":"Torus",
			"primitives":[
				{
					"attributes":{
						"POSITION":24,
						"NORMAL":25,
						"TEXCOORD_0":26
					},
					"indices":27,
					"material":3
				}
			]
		},
		{
			"name":"Torus.001",
			"primitives":[
				{
					"attributes":{
						"POSITION":28,
						"NORMAL":29,
						"TEXCOORD_0":30
					},
					"indices":27,
					"material":3
				}
			]
		},
		{
			"name":"Torus.002",
			"primitives":[
				{
					"attributes":{
						"POSITION":31,
						"NORMAL":32,
						"TEXCOORD_0":33
					},
					"indices":27,
					"material":3
				}
			]
		},
		{
			"name":"Torus.003",
			"primitives":[
				{
					"attributes":{
						"POSITION":34,
						"NORMAL":35,
						"TEXCOORD_0":36
					},
					"indices":27,
					"material":3
				}
			]
		},
		{
			"name":"Mesh",
			"primitives":[
				{
					"attributes":{
						"POSITION":37,
						"NORMAL":38,
						"TEXCOORD_0":39
					},
					"indices":40,
					"material":5
				}
			]
		}
	],
	"textures":[
		{
			"sampler":0,
			"source":0
		},
		{
			"sampler":0,
			"source":1
		},
		{
			"sampler":0,
			"source":0
		},
		{
			"sampler":0,
			"source":1
		},
		{
			"sampler":0,
			"source":2
		},
		{
			"sampler":0,
			"source":0
		},
		{
			"sampler":0,
			"source":1
		},
		{
			"sampler":1,
			"source":3
		},
		{
			"sampler":0,
			"source":1
		},
		{
			"sampler":1,
			"source":3
		},
		{
			"sampler":0,
			"source":1
		}
	],
	"images":[
		{
			"mimeType":"image/jpeg",
			"name":"runes",
			"uri":"textures/runes.jpg"
		},
		{
			"mimeType":"image/png",
			"name":"scratches",
			"uri":"textures/scratches.png"
		},
		{
			"mimeType":"image/jpeg",
			"name":"leatherCord",
			"uri":"textures/leatherCord.jpg"
		},
		{
			"mimeType":"image/jpeg",
			"name":"rune_solo",
			"uri":"textures/rune_solo.jpg"
		}
	],
	"accessors":[
		{
			"bufferView":0,
			"componentType":5126,
			"count":5656,
			"max":[
				0.28258517384529114,
				0.07082708925008774,
				0.22697940468788147
			],
			"min":[
				-0.28258517384529114,
				-0.07082708925008774,
				-5.800001621246338
			],
			"type":"VEC3"
		},
		{
			"bufferView":1,
			"componentType":5126,
			"count":5656,
			"type":"VEC3"
		},
		{
			"bufferView":2,
			"componentType":5126,
			"count":5656,
			"type":"VEC2"
		},
		{
			"bufferView":3,
			"componentType":5123,
			"count":27648,
			"type":"SCALAR"
		},
		{
			"bufferView":4,
			"componentType":5126,
			"count":1282,
			"max":[
				0.1707235723733902,
				0.04589226469397545,
				0.9270657300949097
			],
			"min":[
				-0.1707235872745514,
				-0.0447143092751503,
				-0.01606791280210018
			],
			"type":"VEC3"
		},
		{
			"bufferView":5,
			"componentType":5126,
			"count":1282,
			"type":"VEC3"
		},
		{
			"bufferView":6,
			"componentType":5126,
			"count":1282,
			"type":"VEC2"
		},
		{
			"bufferView":7,
			"componentType":5123,
			"count":6144,
			"type":"SCALAR"
		},
		{
			"bufferView":8,
			"componentType":5126,
			"count":1025,
			"max":[
				0.10072655230760574,
				0.08899778872728348,
				-5.9200005531311035
			],
			"min":[
				-0.10072655230760574,
				-0.08899778872728348,
				-7.160001277923584
			],
			"type":"VEC3"
		},
		{
			"bufferView":9,
			"componentType":5126,
			"count":1025,
			"type":"VEC3"
		},
		{
			"bufferView":10,
			"componentType":5126,
			"count":1025,
			"type":"VEC2"
		},
		{
			"bufferView":11,
			"componentType":5123,
			"count":5760,
			"type":"SCALAR"
		},
		{
			"bufferView":12,
			"componentType":5126,
			"count":17122,
			"max":[
				0.8881216645240784,
				0.12143901735544205,
				-5.384263038635254
			],
			"min":[
				-0.8881216645240784,
				-0.12143900990486145,
				-5.9200029373168945
			],
			"type":"VEC3"
		},
		{
			"bufferView":13,
			"componentType":5126,
			"count":17122,
			"type":"VEC3"
		},
		{
			"bufferView":14,
			"componentType":5126,
			"count":17122,
			"type":"VEC2"
		},
		{
			"bufferView":15,
			"componentType":5123,
			"count":87552,
			"type":"SCALAR"
		},
		{
			"bufferView":16,
			"componentType":5126,
			"count":369,
			"max":[
				0.09589172899723053,
				0.0894828736782074,
				-7.158234119415283
			],
			"min":[
				-0.09589172154664993,
				-0.08427368104457855,
				-7.471456527709961
			],
			"type":"VEC3"
		},
		{
			"bufferView":17,
			"componentType":5126,
			"count":369,
			"type":"VEC3"
		},
		{
			"bufferView":18,
			"componentType":5126,
			"count":369,
			"type":"VEC2"
		},
		{
			"bufferView":19,
			"componentType":5123,
			"count":1920,
			"type":"SCALAR"
		},
		{
			"bufferView":20,
			"componentType":5126,
			"count":4201,
			"max":[
				0.1302659660577774,
				0.0813998207449913,
				-7.455339431762695
			],
			"min":[
				-0.1302659660577774,
				-0.0813998207449913,
				-7.829176425933838
			],
			"type":"VEC3"
		},
		{
			"bufferView":21,
			"componentType":5126,
			"count":4201,
			"type":"VEC3"
		},
		{
			"bufferView":22,
			"componentType":5126,
			"count":4201,
			"type":"VEC2"
		},
		{
			"bufferView":23,
			"componentType":5123,
			"count":21696,
			"type":"SCALAR"
		},
		{
			"bufferView":24,
			"componentType":5126,
			"count":273,
			"max":[
				0.11805376410484314,
				0.10548404604196548,
				-5.906166076660156
			],
			"min":[
				-0.11805376410484314,
				-0.10548404604196548,
				-5.935833930969238
			],
			"type":"VEC3"
		},
		{
			"bufferView":25,
			"componentType":5126,
			"count":273,
			"type":"VEC3"
		},
		{
			"bufferView":26,
			"componentType":5126,
			"count":273,
			"type":"VEC2"
		},
		{
			"bufferView":27,
			"componentType":5123,
			"count":1440,
			"type":"SCALAR"
		},
		{
			"bufferView":28,
			"componentType":5126,
			"count":273,
			"max":[
				0.11100579053163528,
				0.09918651729822159,
				-6.512541770935059
			],
			"min":[
				-0.11100579053163528,
				-0.09918651729822159,
				-6.540437698364258
			],
			"type":"VEC3"
		},
		{
			"bufferView":29,
			"componentType":5126,
			"count":273,
			"type":"VEC3"
		},
		{
			"bufferView":30,
			"componentType":5126,
			"count":273,
			"type":"VEC2"
		},
		{
			"bufferView":31,
			"componentType":5126,
			"count":273,
			"max":[
				0.10291533172130585,
				0.0919574722647667,
				-7.137081623077393
			],
			"min":[
				-0.10291533172130585,
				-0.0919574722647667,
				-7.162944316864014
			],
			"type":"VEC3"
		},
		{
			"bufferView":32,
			"componentType":5126,
			"count":273,
			"type":"VEC3"
		},
		{
			"bufferView":33,
			"componentType":5126,
			"count":273,
			"type":"VEC2"
		},
		{
			"bufferView":34,
			"componentType":5126,
			"count":273,
			"max":[
				0.10291533172130585,
				0.0919574722647667,
				-7.444910049438477
			],
			"min":[
				-0.10291533172130585,
				-0.0919574722647667,
				-7.480508804321289
			],
			"type":"VEC3"
		},
		{
			"bufferView":35,
			"componentType":5126,
			"count":273,
			"type":"VEC3"
		},
		{
			"bufferView":36,
			"componentType":5126,
			"count":273,
			"type":"VEC2"
		},
		{
			"bufferView":37,
			"componentType":5126,
			"count":1489,
			"max":[
				0.08494638651609421,
				0.035825926810503006,
				-7.503296375274658
			],
			"min":[
				-0.08494638651609421,
				-0.035825926810503006,
				-7.683069705963135
			],
			"type":"VEC3"
		},
		{
			"bufferView":38,
			"componentType":5126,
			"count":1489,
			"type":"VEC3"
		},
		{
			"bufferView":39,
			"componentType":5126,
			"count":1489,
			"type":"VEC2"
		},
		{
			"bufferView":40,
			"componentType":5123,
			"count":7200,
			"type":"SCALAR"
		}
	],
	"bufferViews":[
		{
			"buffer":0,
			"byteLength":67872,
			"byteOffset":0,
			"target":34962
		},
		{
			"buffer":0,
			"byteLength":67872,
			"byteOffset":67872,
			"target":34962
		},
		{
			"buffer":0,
			"byteLength":45248,
			"byteOffset":135744,
			"target":34962
		},
		{
			"buffer":0,
			"byteLength":55296,
			"byteOffset":180992,
			"target":34963
		},
		{
			"buffer":0,
			"byteLength":15384,
			"byteOffset":236288,
			"target":34962
		},
		{
			"buffer":0,
			"byteLength":15384,
			"byteOffset":251672,
			"target":34962
		},
		{
			"buffer":0,
			"byteLength":10256,
			"byteOffset":267056,
			"target":34962
		},
		{
			"buffer":0,
			"byteLength":12288,
			"byteOffset":277312,
			"target":34963
		},
		{
			"buffer":0,
			"byteLength":12300,
			"byteOffset":289600,
			"target":34962
		},
		{
			"buffer":0,
			"byteLength":12300,
			"byteOffset":301900,
			"target":34962
		},
		{
			"buffer":0,
			"byteLength":8200,
			"byteOffset":314200,
			"target":34962
		},
		{
			"buffer":0,
			"byteLength":11520,
			"byteOffset":322400,
			"target":34963
		},
		{
			"buffer":0,
			"byteLength":205464,
			"byteOffset":333920,
			"target":34962
		},
		{
			"buffer":0,
			"byteLength":205464,
			"byteOffset":539384,
			"target":34962
		},
		{
			"buffer":0,
			"byteLength":136976,
			"byteOffset":744848,
			"target":34962
		},
		{
			"buffer":0,
			"byteLength":175104,
			"byteOffset":881824,
			"target":34963
		},
		{
			"buffer":0,
			"byteLength":4428,
			"byteOffset":1056928,
			"target":34962
		},
		{
			"buffer":0,
			"byteLength":4428,
			"byteOffset":1061356,
			"target":34962
		},
		{
			"buffer":0,
			"byteLength":2952,
			"byteOffset":1065784,
			"target":34962
		},
		{
			"buffer":0,
			"byteLength":3840,
			"byteOffset":1068736,
			"target":34963
		},
		{
			"buffer":0,
			"byteLength":50412,
			"byteOffset":1072576,
			"target":34962
		},
		{
			"buffer":0,
			"byteLength":50412,
			"byteOffset":1122988,
			"target":34962
		},
		{
			"buffer":0,
			"byteLength":33608,
			"byteOffset":1173400,
			"target":34962
		},
		{
			"buffer":0,
			"byteLength":43392,
			"byteOffset":1207008,
			"target":34963
		},
		{
			"buffer":0,
			"byteLength":3276,
			"byteOffset":1250400,
			"target":34962
		},
		{
			"buffer":0,
			"byteLength":3276,
			"byteOffset":1253676,
			"target":34962
		},
		{
			"buffer":0,
			"byteLength":2184,
			"byteOffset":1256952,
			"target":34962
		},
		{
			"buffer":0,
			"byteLength":2880,
			"byteOffset":1259136,
			"target":34963
		},
		{
			"buffer":0,
			"byteLength":3276,
			"byteOffset":1262016,
			"target":34962
		},
		{
			"buffer":0,
			"byteLength":3276,
			"byteOffset":1265292,
			"target":34962
		},
		{
			"buffer":0,
			"byteLength":2184,
			"byteOffset":1268568,
			"target":34962
		},
		{
			"buffer":0,
			"byteLength":3276,
			"byteOffset":1270752,
			"target":34962
		},
		{
			"buffer":0,
			"byteLength":3276,
			"byteOffset":1274028,
			"target":34962
		},
		{
			"buffer":0,
			"byteLength":2184,
			"byteOffset":1277304,
			"target":34962
		},
		{
			"buffer":0,
			"byteLength":3276,
			"byteOffset":1279488,
			"target":34962
		},
		{
			"buffer":0,
			"byteLength":3276,
			"byteOffset":1282764,
			"target":34962
		},
		{
			"buffer":0,
			"byteLength":2184,
			"byteOffset":1286040,
			"target":34962
		},
		{
			"buffer":0,
			"byteLength":17868,
			"byteOffset":1288224,
			"target":34962
		},
		{
			"buffer":0,
			"byteLength":17868,
			"byteOffset":1306092,
			"target":34962
		},
		{
			"buffer":0,
			"byteLength":11912,
			"byteOffset":1323960,
			"target":34962
		},
		{
			"buffer":0,
			"byteLength":14400,
			"byteOffset":1335872,
			"target":34963
		}
	],
	"samplers":[
		{
			"magFilter":9729,
			"minFilter":9987
		},
		{
			"magFilter":9729,
			"minFilter":9987,
			"wrapS":33071,
			"wrapT":33071
		}
	],
	"buffers":[
		{
			"byteLength":1350272,
			"uri":"sword.bin"
		}
	]
}
