<?xml version="1.0" standalone="no"?>
<!DOCTYPE svg PUBLIC "-//W3C//DTD SVG 20010904//EN"
 "http://www.w3.org/TR/2001/REC-SVG-20010904/DTD/svg10.dtd">
<svg version="1.0" xmlns="http://www.w3.org/2000/svg"
 width="2000.000000pt" height="2250.000000pt" viewBox="0 0 2000.000000 2250.000000"
 preserveAspectRatio="xMidYMid meet">

<g transform="translate(0.000000,2250.000000) scale(0.100000,-0.100000)"
fill="#000000" stroke="none">
<path d="M9810 21389 c-1826 -78 -3564 -636 -5150 -1652 -906 -580 -1783
-1362 -2437 -2172 -46 -56 -42 -22 5 51 50 77 129 168 304 351 150 157 249
274 274 326 34 72 -314 -320 -569 -640 -289 -362 -602 -811 -814 -1168 -346
-580 -644 -1225 -858 -1855 -156 -459 -322 -1098 -323 -1245 -1 -66 -42 -301
-97 -560 -61 -285 -87 -443 -80 -485 3 -19 -9 -127 -28 -241 -18 -113 -30
-216 -27 -230 5 -20 7 -17 13 20 4 24 12 52 18 63 9 16 13 17 26 6 14 -11 15
-32 10 -140 -7 -148 -45 -465 -58 -490 -12 -23 -11 -374 1 -523 14 -159 37
-287 63 -355 18 -49 20 -72 18 -210 -4 -219 13 -390 70 -728 19 -112 22 -78 4
49 -25 181 -27 206 -16 188 13 -21 58 -246 66 -329 6 -60 5 -64 -9 -46 -9 11
-16 29 -17 40 0 12 -3 16 -5 9 -7 -16 77 -376 147 -631 70 -255 131 -455 241
-797 64 -196 83 -245 89 -227 13 34 27 26 40 -20 35 -130 59 -192 149 -379 55
-113 115 -252 134 -310 20 -63 54 -136 84 -184 63 -103 224 -398 294 -540 53
-109 68 -132 160 -254 26 -34 77 -116 113 -182 204 -371 471 -729 1014 -1359
545 -634 1084 -1126 1751 -1600 862 -614 1864 -1108 2845 -1405 751 -227 1490
-360 2310 -417 233 -16 958 -16 1195 0 901 61 1691 207 2475 458 513 164 1121
417 1254 522 27 22 83 52 123 68 40 15 102 38 138 52 100 37 341 160 485 247
166 100 347 221 709 474 159 111 328 225 374 254 47 29 128 93 181 143 53 50
173 159 266 241 206 182 368 349 415 428 23 39 101 125 221 245 265 264 490
545 694 867 79 125 119 177 191 248 50 50 100 108 112 130 11 22 62 99 113
170 186 262 359 539 344 553 -2 2 -18 -7 -35 -22 -36 -30 -46 -32 -54 -10 -12
32 -4 56 98 265 293 603 517 1228 690 1925 237 956 318 1896 229 2634 l-18
145 -6 -350 c-10 -542 -47 -956 -135 -1485 -188 -1139 -535 -2121 -1029 -2910
-40 -63 -100 -169 -135 -235 -315 -602 -891 -1320 -1539 -1918 -102 -94 -262
-247 -356 -338 -451 -440 -1101 -872 -2065 -1372 -1184 -614 -2299 -940 -3320
-971 l-165 -5 105 14 c58 7 168 21 245 30 859 102 1821 369 2660 737 1186 521
2250 1282 3000 2143 118 136 115 135 -50 -25 -846 -821 -1270 -1141 -2085
-1575 -102 -55 -181 -104 -207 -130 -87 -85 -365 -230 -693 -360 -163 -65
-560 -198 -568 -191 -5 6 27 21 343 156 127 54 287 125 357 158 130 62 323
170 315 178 -2 2 -55 -20 -118 -50 -63 -29 -193 -87 -289 -129 -1594 -682
-3122 -945 -4500 -776 -157 20 -128 30 65 23 393 -14 1336 20 1710 62 358 39
493 64 630 114 72 26 168 55 215 64 47 10 166 38 265 62 1250 312 2430 863
3385 1580 183 137 439 348 550 453 53 51 46 47 -40 -24 -577 -472 -1157 -864
-1630 -1100 -157 -78 -348 -160 -356 -152 -2 2 63 41 144 87 844 478 1515 951
1788 1260 44 49 40 47 -41 -26 -145 -129 -200 -174 -376 -306 -592 -447 -1443
-920 -2202 -1225 -160 -64 -214 -77 -203 -48 7 20 9 20 -133 -24 -99 -32 -129
-46 -150 -70 -29 -34 -119 -61 -584 -176 -1142 -284 -2200 -386 -2757 -265
-162 35 -302 48 -629 60 -296 10 -475 38 -866 136 -525 131 -955 288 -1845
672 -614 265 -762 353 -1346 807 -78 61 -222 172 -320 247 -700 535 -1280
1093 -1756 1693 -248 312 -513 717 -737 1123 -103 186 -311 614 -395 812 -359
842 -593 1724 -696 2621 -69 603 -78 1267 -24 1853 168 1844 921 3657 2086
5022 43 51 78 96 78 100 0 24 221 294 241 294 5 0 9 -9 9 -20 0 -29 13 -25 71
25 86 73 120 135 73 135 -36 0 -2 45 154 203 393 398 775 717 1237 1029 1385
938 3009 1490 4611 1568 l212 10 58 35 c102 61 158 78 263 79 55 1 96 -3 98
-9 2 -6 52 -9 130 -7 113 3 261 -9 311 -24 14 -5 14 -3 -2 10 -17 14 -17 16
-3 22 10 3 25 3 35 -1 9 -3 67 -10 128 -15 61 -5 122 -14 135 -19 20 -7 15
-10 -36 -15 -33 -4 -69 -8 -80 -9 -11 -2 43 -6 121 -10 180 -9 332 -28 624
-78 441 -75 654 -101 435 -53 -186 40 -331 78 -314 81 8 2 79 -10 157 -27 156
-33 252 -39 252 -16 0 7 6 19 14 25 26 22 285 -53 721 -209 127 -45 232 -84
235 -87 3 -3 -4 -3 -15 0 -138 38 -253 67 -265 67 -8 0 28 -15 80 -34 123 -43
322 -127 316 -133 -8 -8 -182 43 -429 127 -132 44 -244 80 -250 79 -12 0 36
-18 388 -143 399 -141 822 -308 1130 -444 87 -39 160 -70 162 -68 2 2 -47 27
-110 55 -62 29 -124 61 -137 71 l-25 19 25 -5 c14 -3 74 -22 133 -41 59 -19
115 -32 123 -29 8 3 42 -8 75 -24 32 -17 59 -28 59 -25 0 12 -223 115 -250
115 -49 0 -340 103 -327 116 3 3 22 1 43 -5 68 -19 47 -5 -58 39 -134 55 -206
92 -191 97 7 3 102 -34 212 -81 110 -47 204 -86 211 -86 19 0 407 -192 585
-289 1189 -653 2194 -1519 2977 -2568 258 -346 465 -674 599 -949 93 -190 149
-283 193 -323 53 -50 26 15 -64 149 -31 47 -67 104 -78 127 -19 36 -20 43 -7
53 22 18 18 58 -10 107 -28 46 -45 55 -45 23 0 -40 -30 -18 -71 53 -402 698
-710 1110 -1269 1697 -199 209 -324 350 -315 358 13 13 328 -303 570 -573 249
-276 621 -747 824 -1040 34 -49 68 -89 76 -87 27 5 385 -668 544 -1023 224
-499 451 -1137 632 -1772 20 -69 25 -79 35 -65 27 37 45 -21 118 -378 115
-568 173 -1071 185 -1625 6 -302 7 -307 16 -190 14 168 12 722 -3 890 -98
1092 -440 2330 -916 3318 -62 130 -84 162 -130 192 -28 19 -86 123 -86 156 0
36 -82 219 -136 307 -791 1279 -1755 2285 -2974 3101 -118 80 -225 154 -237
165 -11 12 -117 76 -235 143 -1783 1018 -3900 1418 -6058 1147 -406 -51 -847
-132 -921 -170 -73 -37 -287 -167 -264 -160 175 49 271 71 490 116 143 29 265
57 270 62 6 6 -22 9 -75 8 -106 -2 -106 -2 -93 11 7 7 36 13 65 15 29 2 91 8
138 14 85 9 159 14 193 11 25 -1 13 -17 -31 -41 -20 -12 -28 -18 -17 -16 115
28 568 97 622 95 15 -1 -28 -10 -97 -20 -81 -13 -144 -29 -178 -45 -39 -19
-86 -30 -175 -40 -779 -89 -1551 -306 -2352 -660 -863 -381 -1752 -947 -2465
-1570 -69 -61 -192 -166 -275 -234 -343 -285 -494 -431 -702 -680 -218 -262
-357 -454 -708 -975 -243 -362 -337 -496 -343 -491 -7 8 118 240 209 388 372
608 849 1186 1440 1744 464 438 1123 1000 1159 989 32 -10 131 51 472 297 122
88 213 146 219 142 7 -4 9 -3 5 4 -3 6 -2 13 4 17 5 3 10 2 10 -4 0 -6 24 1
53 14 28 14 60 25 70 25 11 0 74 31 140 69 67 39 214 115 327 170 306 149 430
199 1135 456 99 36 169 63 155 60 -14 -3 -47 -8 -75 -12 -66 -7 -50 8 35 36
68 22 136 58 127 67 -17 17 -822 -278 -832 -305 -5 -14 6 -13 75 5 22 6 23 5
10 -9 -13 -13 -193 -97 -208 -97 -3 0 5 12 19 26 l24 27 -28 -7 c-19 -4 -26
-3 -22 3 7 12 -15 3 -265 -110 -315 -141 -689 -335 -1072 -554 -162 -91 126
101 352 237 1270 762 2746 1207 4235 1278 1542 73 3126 -219 4511 -833 228
-101 897 -431 1032 -508 624 -359 1238 -850 1920 -1538 78 -78 116 -108 164
-130 46 -21 84 -50 143 -110 44 -45 76 -81 72 -81 -4 0 -26 9 -48 21 -23 11
-43 18 -45 16 -6 -5 64 -94 95 -122 22 -19 23 -19 33 -1 9 17 12 16 40 -11 46
-44 131 -143 126 -148 -2 -2 -26 13 -52 35 -27 22 -49 40 -51 40 -2 0 61 -64
139 -142 427 -430 818 -1017 1230 -1848 73 -146 170 -349 216 -452 46 -103 86
-186 88 -184 13 13 -159 424 -298 712 -50 104 -86 184 -81 179 18 -18 253
-492 325 -655 197 -446 321 -805 476 -1384 37 -138 72 -252 78 -254 15 -5 15
36 1 112 -11 63 -5 82 17 52 19 -26 19 -26 -16 96 -32 115 -63 200 -86 236 -9
13 -17 51 -18 85 -5 102 -136 458 -204 554 -11 16 -27 66 -36 113 -64 318
-306 838 -779 1675 -739 1308 -1922 2506 -3297 3337 -286 173 -753 419 -1003
529 -42 19 -80 41 -82 51 -13 39 -170 127 -360 202 -1301 510 -2738 747 -4165
685z m810 -539 l75 -7 -65 -3 c-36 -1 -267 -3 -515 -4 -377 -2 -465 -5 -545
-19 -114 -21 -130 -32 -35 -23 136 12 571 19 589 9 12 -7 -70 -12 -261 -16
-269 -7 -532 -20 -640 -32 -81 -10 -64 11 25 31 83 18 115 34 67 34 -15 0 -26
2 -24 4 5 5 404 35 539 40 135 5 701 -5 790 -14z m2224 -44 c211 -54 338 -96
344 -115 7 -21 -49 -8 -233 55 -88 31 -200 66 -250 79 -49 13 -78 24 -63 24
15 1 106 -19 202 -43z m-2716 -183 c62 -3 109 -10 105 -14 -4 -4 -75 -14 -157
-22 -126 -11 -158 -12 -210 0 -81 18 -88 21 -81 33 7 11 174 13 343 3z m902
-48 c223 -24 448 -47 500 -49 l95 -6 -64 15 c-36 8 -67 17 -69 20 -3 3 28 5
69 5 92 -1 423 -64 395 -76 -28 -11 -388 11 -681 43 -190 20 -311 27 -505 29
-315 3 -289 1 -297 22 -3 9 -15 25 -27 35 -20 18 -18 18 79 12 55 -3 282 -26
505 -50z m1811 -121 c91 -32 96 -36 33 -27 l-48 6 18 -28 18 -28 -53 7 c-81
11 -121 31 -117 58 3 23 13 26 58 15 14 -4 19 -4 12 -1 -6 3 -10 10 -6 15 7
12 -1 13 85 -17z m835 -454 c147 -55 345 -146 379 -174 16 -14 12 -13 -20 2
-22 11 -119 51 -215 90 -96 39 -193 78 -215 87 -43 18 -41 14 19 -30 55 -40
33 -41 -50 -4 -38 18 -125 54 -194 80 -69 27 -119 48 -112 49 32 1 -6 21 -96
51 -95 31 -152 57 -152 70 0 7 453 -145 656 -221z m1747 -730 c84 -54 171
-136 180 -169 5 -22 -16 -30 -29 -10 -3 6 -47 41 -98 79 -95 71 -129 103 -139
133 -9 26 1 22 86 -33z m657 -497 c14 -9 54 -44 90 -77 36 -34 91 -85 123
-115 64 -59 69 -78 10 -39 -63 43 -237 198 -251 224 -15 28 -6 31 28 7z"/>
<path d="M12625 20220 c11 -5 27 -9 35 -9 9 0 8 4 -5 9 -11 5 -27 9 -35 9 -9
0 -8 -4 5 -9z"/>
<path d="M14520 19567 c0 -5 177 -110 238 -141 54 -28 36 -9 -29 29 -105 61
-209 117 -209 112z"/>
<path d="M14470 19500 c8 -5 20 -10 25 -10 6 0 3 5 -5 10 -8 5 -19 10 -25 10
-5 0 -3 -5 5 -10z"/>
<path d="M10045 16859 c-1261 -88 -2430 -565 -3354 -1368 -160 -139 -445 -428
-577 -586 -750 -899 -1189 -1967 -1288 -3135 -69 -816 20 -1608 264 -2340 231
-694 548 -1264 1014 -1825 130 -156 508 -534 661 -661 626 -520 1292 -870
2080 -1094 951 -269 1959 -293 2955 -69 807 181 1522 516 2112 988 239 190
539 498 720 737 194 256 402 618 511 891 l25 62 -639 255 c-351 141 -642 256
-647 256 -4 0 -24 -46 -45 -103 -22 -56 -79 -183 -127 -282 -349 -709 -894
-1233 -1569 -1510 -193 -79 -401 -134 -636 -167 -120 -17 -606 -17 -745 0
-590 72 -1015 245 -1470 598 -142 110 -387 352 -504 499 -375 469 -652 1080
-805 1777 -163 740 -202 1490 -115 2188 102 821 377 1577 809 2230 144 217
252 349 449 546 191 191 283 267 468 390 517 344 1104 500 1743 464 421 -24
767 -117 1125 -301 653 -337 1131 -928 1419 -1755 l46 -131 632 266 c348 146
633 271 633 276 1 53 -229 526 -353 728 -271 437 -649 847 -1081 1170 -786
587 -1806 939 -2923 1007 -197 12 -611 11 -788 -1z"/>
<path d="M19880 13737 c0 -39 42 -335 56 -399 18 -77 42 -143 50 -135 6 6 -16
138 -63 367 -33 166 -43 204 -43 167z"/>
</g>
</svg>
